<?xml version="1.0" encoding="UTF-8" standalone="no"?>
<!-- Created with Inkscape (http://www.inkscape.org/) -->

<svg
   width="64mm"
   height="64mm"
   viewBox="0 0 64.000002 64.000002"
   version="1.1"
   id="svg5"
   inkscape:version="1.1.2 (0a00cf5339, 2022-02-04)"
   sodipodi:docname="logo-mark.svg"
   inkscape:export-filename="/home/jeremy/apple-touch-icon.png.png"
   inkscape:export-xdpi="71.440002"
   inkscape:export-ydpi="71.440002"
   xmlns:inkscape="http://www.inkscape.org/namespaces/inkscape"
   xmlns:sodipodi="http://sodipodi.sourceforge.net/DTD/sodipodi-0.dtd"
   xmlns="http://www.w3.org/2000/svg"
   xmlns:svg="http://www.w3.org/2000/svg">
  <sodipodi:namedview
     id="namedview7"
     pagecolor="#ffffff"
     bordercolor="#666666"
     borderopacity="1.0"
     inkscape:pageshadow="2"
     inkscape:pageopacity="0.0"
     inkscape:pagecheckerboard="0"
     inkscape:document-units="mm"
     showgrid="false"
     inkscape:zoom="0.70710678"
     inkscape:cx="416.48589"
     inkscape:cy="151.32085"
     inkscape:window-width="2176"
     inkscape:window-height="965"
     inkscape:window-x="2880"
     inkscape:window-y="165"
     inkscape:window-maximized="0"
     inkscape:current-layer="layer1"
     width="100mm"
     units="mm"
     fit-margin-top="0"
     fit-margin-left="0"
     fit-margin-right="0"
     fit-margin-bottom="0"
     lock-margins="true"
     viewbox-height="115" />
  <defs
     id="defs2" />
  <g
     inkscape:label="Layer 1"
     inkscape:groupmode="layer"
     id="layer1"
     transform="translate(-1.9570312e-5,-2.3681641e-5)">
    <g
       id="g6952"
       transform="matrix(0.32635863,0,0,0.32635863,85.334883,24.185427)">
      <path
         style="fill:#6868eb;fill-opacity:1;stroke:#f2f2f2;stroke-width:15.1181;stroke-opacity:0"
         d="m -599.21398,318.83642 c 0.6677,-1.73996 1.21398,-3.9549 1.21398,-4.92208 0,-0.96718 1.99384,-3.61606 4.43074,-5.88638 l 4.43076,-4.12788 -30.93076,-30.20266 c -44.70468,-43.65238 -40.68218,-40.8576 -61.06054,-42.42402 -9.53862,-0.73318 -23.71728,-2.78288 -31.50813,-4.55488 l -14.16517,-3.2218 14.90155,-4.39246 c 17.93059,-5.2853 53.34719,-19.78584 76.22523,-31.2087 C -571.38676,155.79618 -533.4535,110.99092 -530.78322,64 l 0.85238,-15 -3.91196,8.4044 c -15.95288,34.2729 -45.36246,64.45452 -79.1572,81.2352 -27.99086,13.89876 -53.71334,19.39284 -114,24.34928 -20.9,1.71828 -57.8,5.32218 -82,8.00866 -24.2,2.68648 -54.35,5.42264 -67,6.08038 l -23,1.19586 5,-4.26778 c 4.63694,-3.95788 46.8386,-31.77582 195,-128.537596 75.23168,-49.132576 130.41648,-87.3812 138.19086,-95.78017 3.40496,-3.678528 14.16846,-17.938234 23.91886,-31.688234 21.74234,-30.66098 36.17542,-45.43834 51.89028,-53.12806 11.06164,-5.41277 13.72034,-5.87194 34,-5.87194 21.62306,0 22.25464,0.13206 36.86166,7.70728 11.641,6.03703 22.04308,9.21633 48,14.67077 31.07072,6.52902 52.13834,13.22636 52.13834,16.57465 0,0.80307 -14.0002,5.223658 -31.11156,9.823526 -17.11136,4.599866 -36.19084,10.263796 -42.39884,12.586508 -14.48946,5.4212 -29.66092,19.432698 -35.68284,32.954646 -5.68994,12.776492 -13.29332,18.70774 -34.23134,26.70321 -8.98064,3.429382 -19.95956,8.865614 -24.3976,12.080516 -31.93322,23.132306 -17.3214,75.742734 21.07072,75.865994 5.6367,0.018 14.1021,-1.3267 18.81198,-2.98846 4.7099,-1.66174 9.02114,-2.56366 9.58054,-2.00424 1.90366,1.90366 -5.71712,25.2763 -12.93604,39.67428 -11.9371,23.80832 -24.71282,41.35636 -44.70502,61.4044 -30.06534,30.14934 -63.14746,49.92796 -98.42718,58.8461 -9.67092,2.44466 -18.09606,4.9574 -18.72254,5.58386 -2.70334,2.70336 41.90512,66.06758 47.76634,67.84982 2.41086,0.73308 9.57072,2.26316 15.91082,3.40016 14.30376,2.5652 33.67704,11.09792 39.66206,17.4687 L -499.30274,322 h -50.5626 c -45.2848,0 -50.4359,-0.33022 -49.34864,-3.16358 z m 173.17694,-421.03229 c 9.68068,-9.39477 8.89944,-11.79027 -4.28904,-13.15162 -6.10758,-0.63044 -10.71346,0.22945 -15.56734,2.90632 -7.06034,3.89372 -11.13396,9.47735 -5.2737,7.22855 2.05018,-0.78672 3.16712,-0.12186 3.16712,1.88523 0,3.26962 7.27646,9.32739 11.20384,9.32739 1.27262,0 6.11422,-3.688144 10.75912,-8.19587 z"
         id="path6552"
         transform="matrix(0.26458333,0,0,0.26458333,1.9570312e-5,2.3681641e-5)" />
      <path
         style="fill:#6868eb;fill-opacity:1;stroke:#f2f2f2;stroke-width:15.1181;stroke-opacity:0"
         d="m -914,268.8931 c -7.15,-1.60007 -19.58456,-4.35919 -27.63236,-6.13137 l -14.63235,-3.22215 4.5544,-4.84794 c 2.50492,-2.66637 11.78948,-9.47763 20.63236,-15.13614 8.84287,-5.65851 24.17795,-16.3231 34.07795,-23.6991 25.17073,-18.75345 30.5777,-21.06359 53,-22.64443 10.45,-0.73675 45.76196,-4.05413 78.47102,-7.37195 32.70906,-3.31782 65.10428,-5.76411 71.98936,-5.43621 L -681.02126,181 -783.01063,225.76811 c -64.00912,28.09672 -104.96852,45.00385 -109.98937,45.40116 -4.4,0.34818 -13.85,-0.6761 -21,-2.27617 z"
         id="path6591"
         transform="matrix(0.26458333,0,0,0.26458333,1.9570312e-5,2.3681641e-5)" />
      <path
         style="fill:#6868eb;fill-opacity:1;stroke:#f2f2f2;stroke-width:15.1181;stroke-opacity:0"
         d="m -425.34853,36.439238 c 1.07717,-5.258418 1.36826,-12.70699 0.64686,-16.552382 -1.72129,-9.17529 -12.0855,-21.539422 -21.64179,-25.817904 l -7.62643,-3.414454 25.24331,-11.742082 c 25.96625,-12.078359 30.81207,-13.039409 40.49636,-8.031468 5.44467,2.815548 18.13946,15.767678 18.31732,18.688644 0.0479,0.786724 0.88322,5.480408 1.85626,10.430408 1.32659,6.748608 1.07028,10.08422 -1.02457,13.334198 C -371.27549,16.738406 -422.6229,46 -426.40224,46 c -0.49763,0 -0.0235,-4.302342 1.05371,-9.560762 z"
         id="path6630"
         transform="matrix(0.26458333,0,0,0.26458333,1.9570312e-5,2.3681641e-5)" />
      <path
         style="fill:#6868eb;fill-opacity:1;stroke:#f2f2f2;stroke-width:15.1181;stroke-opacity:0"
         d="m -356,7.317862 c 0,-15.556282 -9.70343,-35.09998 -21.15133,-42.600931 -2.68675,-1.760424 -8.17399,-4.331476 -12.19389,-5.713449 l -7.30889,-2.512678 4.81841,-2.578735 c 12.46904,-6.673228 33.15644,0.08022 42.70381,13.940763 6.20883,9.01377 10.17933,23.701572 8.36322,30.937512 C -342.23182,4.620026 -350.33568,14 -353.90909,14 -355.05909,14 -356,10.993038 -356,7.317862 Z"
         id="path6669"
         transform="matrix(0.26458333,0,0,0.26458333,1.9570312e-5,2.3681641e-5)" />
      <path
         style="fill:#6868eb;fill-opacity:1;stroke:#f2f2f2;stroke-width:15.1181;stroke-opacity:0"
         d="M -328.85175,-8.413752 C -329.28758,-9.836188 -330.68063,-15.5 -331.94743,-21 c -2.8756,-12.484844 -8.16956,-20.404868 -18.69761,-27.972572 l -8.19852,-5.893208 24.92178,-11.990225 c 20.34362,-9.787609 26.82104,-12.004349 35.26065,-12.06711 8.33173,-0.06196 11.37772,0.893794 15.69003,4.923115 7.20085,6.728316 10.97265,14.43478 10.96362,22.40068 -0.013,11.452484 -6.0243,18.069328 -27.25199,29.997058 -29.28176,16.453272 -28.67486,16.182792 -29.59228,13.18851 z"
         id="path6708"
         transform="matrix(0.26458333,0,0,0.26458333,1.9570312e-5,2.3681641e-5)" />
      <path
         style="fill:#6868eb;fill-opacity:1;stroke:#f2f2f2;stroke-width:15.1181;stroke-opacity:0"
         d="M -469.96013,52.496892 C -480.13339,47.385668 -486,37.513064 -486,25.504234 c 0,-8.596972 0.89753,-10.801768 6.8,-16.704234 5.70279,-5.7027892 8.24094,-6.8 15.73028,-6.8 15.04961,0 25.47682,11.630548 25.46224,28.40068 -0.0104,11.93832 -5.8289,20.810814 -15.38848,23.465432 -9.54997,2.65195 -8.36568,2.749844 -16.56417,-1.36922 z m 14.59161,-8.7963 c 6.1147,-3.218526 7.30287,-5.573376 7.33789,-14.54311 C -447.99188,19.234929 -452.55125,14 -461.23206,14 c -13.75292,0 -19.94225,17.007512 -9.85885,27.09091 5.43068,5.430678 9.18046,6.053086 15.72239,2.609682 z"
         id="path6747"
         transform="matrix(0.26458333,0,0,0.26458333,1.9570312e-5,2.3681641e-5)" />
    </g>
  </g>
</svg>
