<?xml version="1.0" encoding="UTF-8" standalone="no"?>
<!-- Created with Inkscape (http://www.inkscape.org/) -->

<svg
   width="64"
   height="64"
   viewBox="0 0 16.933333 16.933333"
   version="1.1"
   id="svg5"
   inkscape:version="1.1.2 (0a00cf5339, 2022-02-04)"
   sodipodi:docname="logo-mark.svg"
   inkscape:export-filename="/home/jeremy/apple-touch-icon.png"
   inkscape:export-xdpi="270"
   inkscape:export-ydpi="270"
   xmlns:inkscape="http://www.inkscape.org/namespaces/inkscape"
   xmlns:sodipodi="http://sodipodi.sourceforge.net/DTD/sodipodi-0.dtd"
   xmlns="http://www.w3.org/2000/svg"
   xmlns:svg="http://www.w3.org/2000/svg">
  <sodipodi:namedview
     id="namedview7"
     pagecolor="#ffffff"
     bordercolor="#666666"
     borderopacity="1.0"
     inkscape:pageshadow="2"
     inkscape:pageopacity="0.0"
     inkscape:pagecheckerboard="true"
     inkscape:document-units="mm"
     showgrid="false"
     inkscape:zoom="4"
     inkscape:cx="36.375"
     inkscape:cy="49.25"
     inkscape:window-width="2176"
     inkscape:window-height="1031"
     inkscape:window-x="2816"
     inkscape:window-y="165"
     inkscape:window-maximized="0"
     inkscape:current-layer="layer1"
     width="100mm"
     units="px"
     fit-margin-top="0"
     fit-margin-left="0"
     fit-margin-right="0"
     fit-margin-bottom="0"
     lock-margins="true"
     viewbox-height="115" />
  <defs
     id="defs2" />
  <g
     inkscape:label="Layer 1"
     inkscape:groupmode="layer"
     id="layer1"
     transform="translate(-1.9570312e-5,-2.3681641e-5)">
    <path
       id="path4985"
       style="fill:#6868eb;fill-opacity:1;stroke:none;stroke-width:0.354381;stroke-opacity:0"
       d="m 0.53538421,3.5206275 c -0.001434,7.32e-5 -0.002622,2.541e-4 -0.003438,5.56e-4 -0.022805,0.00759 0.0982605,0.1924987 0.26907459,0.4109681 0.17081197,0.2184694 0.4965664,0.6403162 0.7239042,0.9374315 0.5515497,0.7208531 0.6630132,0.8128106 1.1647079,0.9603919 0.2256991,0.066394 0.927305,0.2876859 1.5590395,0.4918144 0.6317343,0.2041265 1.2541229,0.396 1.3830484,0.4263684 0.2406884,0.0567 0.3855832,0.1362562 0.2481752,0.1362562 -0.041425,0 -0.7041771,-0.085069 -1.4726932,-0.1890543 C 3.6386881,6.5913759 2.9779366,6.5124994 2.9387717,6.5200565 c -0.068472,0.013181 1.7233123,1.4929003 2.4116364,1.9915931 0.2843853,0.20604 0.3742424,0.2449041 0.6733067,0.291075 0.3425947,0.052884 1.9755424,0.238275 2.0987019,0.238275 0.035348,0 0.064347,0.021103 0.064347,0.046884 0,0.025781 -0.020071,0.046884 -0.044547,0.046884 -0.024482,0 -0.7154092,0.2865706 -1.5353908,0.6368703 C 5.7868441,10.12194 4.6412957,10.599166 4.0611322,10.832127 2.932806,11.285204 1.9983163,11.70587 1.9983163,11.760621 c 0,0.01845 0.1529432,0.04766 0.3398839,0.06503 0.1869435,0.01736 0.7934706,0.103031 1.34785,0.190428 1.0093374,0.159127 1.2262318,0.166214 1.4559192,0.04744 0.067663,-0.03499 0.5668996,-0.397023 1.1094354,-0.804613 0.8929742,-0.670861 1.5133917,-1.086335 1.5133917,-1.013464 0,0.01514 -0.1529429,0.188172 -0.3398845,0.38457 -0.1869433,0.196394 -0.410246,0.446718 -0.4962136,0.556161 -0.1315384,0.167458 -0.1426163,0.198953 -0.07026,0.198953 0.09962,7.5e-5 5.1363786,-1.6673403 5.3161896,-1.7599185 0.20855,-0.1073784 0.586003,-0.4763102 1.091836,-1.067224 0.515389,-0.602085 0.76372,-0.8305022 1.022265,-0.9405947 0.167151,-0.071175 1.616038,-0.4274043 1.950621,-0.4795771 0.159172,-0.024825 0.189374,-0.043903 0.148218,-0.093497 C 16.317987,6.9604772 15.478717,6.6356494 14.933573,6.4815562 14.690937,6.4129687 14.27087,6.2550534 14.00013,6.1306734 13.236511,5.7798675 12.814366,5.743455 11.960687,5.9548191 c -0.47634,0.1179384 -1.533393,0.4576874 -1.590113,0.5110631 -0.04063,0.038231 0.04918,0.158204 0.831973,1.1109487 0.153968,0.187395 0.267724,0.3527578 0.252852,0.3676575 -0.05413,0.054122 -0.678788,-0.3986362 -1.176396,-0.852735 C 9.2651398,6.1665262 9.3103992,6.1978847 8.7341264,6.0197119 5.8630945,5.1320344 4.6929258,4.7686491 3.5922785,4.4228606 1.9409159,3.9040603 0.62579477,3.5160525 0.53538421,3.5206275 Z M 13.341672,6.5188125 c 0.01021,-7.41e-5 0.02128,5.06e-5 0.033,2.54e-4 0.06248,0.00122 0.144944,0.00675 0.232227,0.016088 l 0.317336,0.033956 -0.128695,0.1106822 c -0.180869,0.1555744 -0.434823,0.1522819 -0.507214,-0.00656 -0.02943,-0.064575 -0.04118,-0.129721 -0.02613,-0.144781 0.0061,-0.00609 0.03523,-0.00928 0.07947,-0.00962 z m 1.001917,0.2399259 c 0.03859,-0.00356 0.05239,0.0015 0.05239,0.0015 l 0.07149,0.010997 c 0.07153,0.010884 0.08295,0.074981 0.06682,0.093771 -0.01613,0.018788 -0.140519,0.022275 -0.140519,0.022275 l -0.450016,-0.00788 0.198541,-0.069844 c 0.09927,-0.034941 0.162699,-0.047278 0.20129,-0.050869 z M 13.24529,10.3113 c -0.103594,0.0013 -0.314855,0.06143 -0.839536,0.234976 l -0.765702,0.253263 0.06394,0.162379 c 0.03519,0.0893 0.08685,0.216795 0.114669,0.283375 0.04722,0.113011 0.04507,0.14278 -0.03203,0.446991 -0.04543,0.179214 -0.08263,0.339511 -0.08263,0.356246 0,0.0538 0.354532,-0.02238 0.756489,-0.162517 0.212944,-0.07424 0.541765,-0.184954 0.730641,-0.245976 0.188875,-0.06102 0.373113,-0.137876 0.409456,-0.170767 0.329489,-0.29818 0.116806,-1.073742 -0.316785,-1.155084 -0.011,-0.0021 -0.0237,-0.0031 -0.03849,-0.0029 z m -2.699961,0.179978 c -0.07782,7.68e-4 -0.126711,0.03344 -0.135843,0.09762 -0.0094,0.06607 0.02198,0.105801 0.175715,0.222878 0.209892,0.159847 0.358392,0.323129 0.435168,0.478477 0.05756,0.116436 0.06214,0.137111 0.06751,0.300286 0.0034,0.103386 -0.0051,0.251799 -0.02063,0.362158 -0.01447,0.102872 -0.02626,0.205481 -0.02626,0.227965 0,0.0478 0.01632,0.05041 0.09185,0.01457 0.198947,-0.09441 0.388931,-0.485959 0.388693,-0.801037 -1.22e-4,-0.168245 -0.02022,-0.231161 -0.112607,-0.353084 -0.09855,-0.130053 -0.421322,-0.391981 -0.575136,-0.466652 -0.111993,-0.05437 -0.208326,-0.08201 -0.280898,-0.08318 -0.0025,-4.3e-5 -0.0051,-2.7e-5 -0.0076,0 z m -0.7866004,0.308124 c -0.074156,8.46e-4 -0.1215496,0.02319 -0.1524815,0.0704 -0.049359,0.07533 -0.022256,0.114376 0.1673297,0.241575 0.3033692,0.203541 0.4633892,0.378099 0.5406252,0.589436 0.03125,0.08546 0.03682,0.142186 0.04317,0.440528 l 0.0073,0.342497 0.04702,-0.01637 c 0.06653,-0.02319 0.193476,-0.164886 0.2413,-0.269349 0.112738,-0.246253 0.14002,-0.600638 0.05994,-0.778214 -0.05053,-0.112085 -0.210563,-0.262886 -0.445472,-0.419907 -0.210767,-0.140885 -0.3069177,-0.182789 -0.4530421,-0.197715 -0.0201,-0.0021 -0.038569,-0.0031 -0.055687,-0.0029 z m -0.3369975,0.603871 c -0.00694,5e-6 -0.014141,7.1e-5 -0.021725,1.37e-4 -0.077489,6.36e-4 -0.1930215,0.0136 -0.2568372,0.02887 -0.1072144,0.02567 -0.6553155,0.191594 -0.6690442,0.202529 -0.00333,0.0026 0.060976,0.08035 0.142993,0.172555 0.287913,0.323644 0.3473152,0.55472 0.2774625,1.080699 -0.013669,0.102875 -0.027295,0.207376 -0.030248,0.232226 -0.00488,0.04095 -0.00143,0.04421 0.037261,0.03492 0.107251,-0.02571 0.3779018,-0.132703 0.9689174,-0.383056 0.096545,-0.04089 0.1393774,-0.08085 0.1875404,-0.175167 0.05814,-0.113853 0.06966,-0.290053 0.03052,-0.465965 -0.0612,-0.275068 -0.2707191,-0.584627 -0.4637663,-0.685131 -0.067706,-0.03524 -0.099452,-0.0427 -0.2030775,-0.04263 z m -1.3576112,0.457991 c -0.00358,-6e-6 -0.00713,7.3e-5 -0.010726,1.38e-4 -0.032821,5.82e-4 -0.065758,0.0042 -0.098445,0.011 -0.228876,0.04751 -0.4214524,0.194583 -0.5140881,0.392545 -0.042166,0.09008 -0.052635,0.13654 -0.05926,0.263025 -0.021022,0.401867 0.1844648,0.725126 0.5395248,0.849022 0.1459055,0.05091 0.3977992,0.04697 0.5212382,-0.0083 0.1076986,-0.04817 0.2197754,-0.156257 0.2678379,-0.258076 0.043577,-0.0923 0.073567,-0.242675 0.048398,-0.242675 -0.00844,0 -0.096293,0.05181 -0.1952408,0.115082 -0.1916451,0.122547 -0.3009461,0.161112 -0.4018944,0.142168 -0.2613377,-0.04903 -0.4851585,-0.368036 -0.4423166,-0.63027 0.043148,-0.264085 0.3108756,-0.407319 0.4966274,-0.265638 0.067687,0.05163 0.090079,0.123011 0.090195,0.287225 8.26e-5,0.106218 0.0051,0.125819 0.040836,0.161553 0.046904,0.04689 0.1312698,0.05433 0.1854779,0.01636 0.09745,-0.06826 0.1233819,-0.296258 0.054586,-0.480128 -0.079133,-0.211455 -0.296827,-0.352648 -0.5227523,-0.353038 z" />
  </g>
</svg>
