<?xml version="1.0" encoding="UTF-8" standalone="no"?>
<!-- Created with Inkscape (http://www.inkscape.org/) -->

<svg
   width="64"
   height="64"
   viewBox="0 0 16.933333 16.933333"
   version="1.1"
   id="svg5"
   inkscape:version="1.1.2 (0a00cf5339, 2022-02-04)"
   sodipodi:docname="corvo-logo-mark.svg"
   inkscape:export-filename="/home/jeremy/apple-touch-icon.png"
   inkscape:export-xdpi="270"
   inkscape:export-ydpi="270"
   xmlns:inkscape="http://www.inkscape.org/namespaces/inkscape"
   xmlns:sodipodi="http://sodipodi.sourceforge.net/DTD/sodipodi-0.dtd"
   xmlns="http://www.w3.org/2000/svg"
   xmlns:svg="http://www.w3.org/2000/svg">
  <sodipodi:namedview
     id="namedview7"
     pagecolor="#ffffff"
     bordercolor="#666666"
     borderopacity="1.0"
     inkscape:pageshadow="2"
     inkscape:pageopacity="0.0"
     inkscape:pagecheckerboard="true"
     inkscape:document-units="mm"
     showgrid="false"
     inkscape:zoom="3.4387678"
     inkscape:cx="23.409548"
     inkscape:cy="49.14551"
     inkscape:window-width="2048"
     inkscape:window-height="1139"
     inkscape:window-x="0"
     inkscape:window-y="32"
     inkscape:window-maximized="1"
     inkscape:current-layer="layer1"
     width="100mm"
     units="px"
     fit-margin-top="0"
     fit-margin-left="0"
     fit-margin-right="0"
     fit-margin-bottom="0"
     lock-margins="true"
     viewbox-height="115" />
  <defs
     id="defs2" />
  <g
     inkscape:label="Layer 1"
     inkscape:groupmode="layer"
     id="layer1"
     transform="translate(-1.9570312e-5,-2.3681641e-5)">
    <path
       id="path15696-8"
       style="fill:#6366f1;fill-opacity:1;stroke:none;stroke-width:1.12983;stroke-opacity:1"
       d="m 8.2549537,0.26486291 c -0.00436,5.2894e-4 -0.00843,0.001841 -0.012545,0.003681 -0.1746918,0.0797669 -1.1508566,3.42523269 -1.0788223,3.69725869 0.141668,0.5349737 1.3080373,3.4846867 1.4082748,3.561496 0.061835,0.047391 0.058115,0.155 -0.00823,0.2390904 C 8.4972381,7.8504768 8.345092,7.7893293 8.2256354,7.6306258 6.9716718,5.9646819 6.7303,5.6593793 6.6825901,5.67867 6.6195147,5.7041772 6.2892291,9.0810587 6.2706756,9.8900754 6.2670912,10.046053 6.2980428,10.202162 6.3704849,10.373878 2.8984112,8.832366 2.4845167,8.6650232 2.4062591,8.7702265 c -0.041879,0.056284 -0.0092,0.4825208 0.072724,0.9472031 0.2896707,1.6436944 0.3137422,1.6642844 2.2530529,1.9267124 2.5255042,0.341753 3.1498103,0.582794 1.5098192,0.582815 -0.5147986,3e-6 -0.9747582,0.05196 -1.0221136,0.11562 -0.0061,0.0082 0.00707,0.02744 0.036163,0.05559 -0.2487178,0.005 -0.3986058,0.0084 -0.7030703,0.01452 -3.81644794,0.07598 -4.26330423,0.09978 -4.28767411,0.227843 -0.0130297,0.06848 0.20401294,0.439285 0.48223505,0.823995 0.98414156,1.360808 1.01500496,1.369094 2.88033216,0.786591 2.4291581,-0.75858 3.0984026,-0.804831 1.6185691,-0.111959 -0.4645262,0.217493 -0.8567247,0.458803 -0.8714652,0.536252 -0.014744,0.07743 1.2560203,0.258006 2.8238899,0.40114 l 2.8505758,0.260149 2.148174,0.0093 2.148041,0.009 0.868128,0.670839 c 0.47742,0.368948 0.893959,0.658032 0.925774,0.642323 0.0318,-0.01571 0.08834,-0.32445 0.125562,-0.686009 0.03723,-0.361558 0.166505,-1.186984 0.287287,-1.834372 0.179175,-0.960398 0.158826,-1.244799 -0.110885,-1.5448 -0.135233,-0.150421 -0.541914,-0.459033 -0.94779,-0.73924 -0.03393,-0.117542 -0.06849,-0.236419 -0.09914,-0.347258 -0.260621,-0.942308 -0.404108,-1.190149 -0.779394,-1.346906 -0.04261,-0.01781 -0.10336,-0.03721 -0.1744,-0.05729 l 0.03323,-0.04996 0.233911,-2.9084457 c 0.391345,-4.8656642 0.465971,-5.9448739 0.382026,-6.1395617 -0.01192,-0.0278516 -0.02718,-0.037665 -0.04523,-0.0378006 -0.19271,-0.001841 -2.544571,2.60456378 -2.599185,2.88045508 -0.107402,0.5425843 -0.351968,3.6970398 -0.295292,3.8086969 0.03496,0.068888 -0.01573,0.1644463 -0.112619,0.2122774 -0.09688,0.047827 -0.207251,-0.071571 -0.245255,-0.2652496 -0.398971,-2.0330246 -0.482473,-2.4106434 -0.534007,-2.4133927 -0.02389,-0.00136 -0.263783,0.3646201 -0.574572,0.8594411 l -0.02896,-0.073896 C 8.8683197,1.4290021 8.4611831,0.42366429 8.2998281,0.28345419 h -1.337e-4 c -0.017244,-0.0150834 -0.031659,-0.0201403 -0.044698,-0.0185709 z" />
  </g>
</svg>
