<?xml version="1.0" encoding="UTF-8" standalone="no"?>
<!-- Created with Inkscape (http://www.inkscape.org/) -->

<svg
   width="240"
   height="64"
   viewBox="0 0 63.5 16.933333"
   version="1.1"
   id="svg5"
   inkscape:version="1.1.2 (0a00cf5339, 2022-02-04)"
   sodipodi:docname="corvo-logo-full.svg"
   xmlns:inkscape="http://www.inkscape.org/namespaces/inkscape"
   xmlns:sodipodi="http://sodipodi.sourceforge.net/DTD/sodipodi-0.dtd"
   xmlns="http://www.w3.org/2000/svg"
   xmlns:svg="http://www.w3.org/2000/svg">
  <sodipodi:namedview
     id="namedview7"
     pagecolor="#ffffff"
     bordercolor="#666666"
     borderopacity="1.0"
     inkscape:pageshadow="2"
     inkscape:pageopacity="0"
     inkscape:pagecheckerboard="true"
     inkscape:document-units="mm"
     showgrid="false"
     inkscape:zoom="1.115987"
     inkscape:cx="27.330066"
     inkscape:cy="53.764065"
     inkscape:window-width="2048"
     inkscape:window-height="1139"
     inkscape:window-x="0"
     inkscape:window-y="32"
     inkscape:window-maximized="1"
     inkscape:current-layer="g6952"
     width="200mm"
     units="px"
     fit-margin-top="0"
     fit-margin-left="0"
     fit-margin-right="0"
     fit-margin-bottom="0"
     lock-margins="true"
     viewbox-height="115"
     showguides="false"
     inkscape:lockguides="true" />
  <defs
     id="defs2">
    <rect
       x="267.44034"
       y="-112.15972"
       width="747.82544"
       height="337.45996"
       id="rect10501" />
    <rect
       x="256.26163"
       y="65.66935"
       width="382.83548"
       height="138.367"
       id="rect17111" />
  </defs>
  <g
     inkscape:label="Layer 1"
     inkscape:groupmode="layer"
     id="layer1"
     transform="translate(-1.9570312e-5,-2.3681641e-5)">
    <g
       aria-label="corvo"
       transform="matrix(1.3823315,0,0,1.3823315,-289.76245,-94.94836)"
       id="text17109"
       style="font-weight:600;font-size:40px;line-height:1.25;font-family:Inter;-inkscape-font-specification:'Inter, Semi-Bold';white-space:pre;shape-inside:url(#rect17111);fill:#6868eb" />
    <g
       id="g6952"
       transform="matrix(0.34240906,0,0,0.34240906,89.016243,23.801103)">
      <g
         id="g36904">
        <g
           aria-label="corvo"
           transform="matrix(0.60010889,0,0,0.60010889,-362.63952,-7.2100511)"
           id="text10499"
           style="font-weight:600;font-size:75.7433px;line-height:1.25;font-family:Inter;-inkscape-font-specification:'Inter, Semi-Bold';white-space:pre;shape-inside:url(#rect10501);fill:#6868eb">
          <path
             d="m 290.4637,-41.255118 c 10.38242,0 16.9992,-6.159523 17.69854,-14.928101 h -9.30653 c -0.83382,4.438084 -4.03462,6.993345 -8.31132,6.993345 -6.07883,0 -10.00586,-5.083624 -10.00586,-13.529432 0,-8.338219 4.00772,-13.34115 10.00586,-13.34115 4.68016,0 7.55819,3.012518 8.31132,6.993345 h 9.30653 c -0.67244,-8.956861 -7.66578,-14.847409 -17.75234,-14.847409 -12.10387,0 -19.74275,8.741681 -19.74275,21.356599 0,12.507327 7.4506,21.302803 19.79655,21.302803 z"
             id="path36850" />
          <path
             d="m 334.19891,-41.255118 c 12.10386,0 19.79654,-8.526501 19.79654,-21.302803 0,-12.8032 -7.69268,-21.356599 -19.79654,-21.356599 -12.10387,0 -19.79655,8.553399 -19.79655,21.356599 0,12.776302 7.69268,21.302803 19.79655,21.302803 z m 0.0538,-7.800269 c -6.69747,0 -9.97896,-5.97124 -9.97896,-13.529432 0,-7.558191 3.28149,-13.610124 9.97896,-13.610124 6.58988,0 9.87138,6.051933 9.87138,13.610124 0,7.558192 -3.2815,13.529432 -9.87138,13.529432 z"
             id="path36852" />
          <path
             d="m 362.22605,-42.062042 h 9.73688 v -24.288424 c 0,-5.245008 3.95393,-8.956861 9.30653,-8.956861 1.64075,0 3.68496,0.295873 4.51878,0.564848 v -8.956861 c -0.88762,-0.161385 -2.42078,-0.268975 -3.49668,-0.268975 -4.73395,0 -8.68788,2.689748 -10.19414,7.477499 h -0.43036 v -6.885754 h -9.44101 z"
             id="path36854" />
          <path
             d="M 430.46483,-83.37657 H 420.1093 l -9.52171,30.690023 h -0.43036 l -9.49481,-30.690023 h -10.38243 l 14.71293,41.314528 h 10.75899 z"
             id="path36856" />
          <path
             d="m 453.78476,-41.255118 c 12.10386,0 19.79654,-8.526501 19.79654,-21.302803 0,-12.8032 -7.69268,-21.356599 -19.79654,-21.356599 -12.10387,0 -19.79655,8.553399 -19.79655,21.356599 0,12.776302 7.69268,21.302803 19.79655,21.302803 z m 0.0538,-7.800269 c -6.69747,0 -9.97896,-5.97124 -9.97896,-13.529432 0,-7.558191 3.28149,-13.610124 9.97896,-13.610124 6.58988,0 9.87138,6.051933 9.87138,13.610124 0,7.558192 -3.2815,13.529432 -9.87138,13.529432 z"
             id="path36858" />
        </g>
        <path
           id="path15696-8"
           style="fill:#6366f1;fill-opacity:1;stroke:none;stroke-width:3.29967;stroke-opacity:1"
           d="m -235.08918,-68.737182 c -0.0127,0.002 -0.0247,0.005 -0.0366,0.0107 -0.51019,0.23296 -3.36106,10.00333 -3.15069,10.79778 0.41374,1.56238 3.8201,10.176971 4.11285,10.401289 0.18059,0.1384 0.16972,0.452677 -0.0242,0.698261 -0.19389,0.245583 -0.63822,0.06699 -0.9871,-0.396494 -3.66217,-4.865366 -4.3671,-5.756996 -4.50643,-5.700656 -0.18422,0.0745 -1.14881,9.936621 -1.20299,12.29934 -0.0104,0.455529 0.0799,0.911444 0.29149,1.412941 -10.14014,-4.501963 -11.34891,-4.990687 -11.57746,-4.683441 -0.12229,0.164386 -0.0268,1.409193 0.21239,2.76629 0.84598,4.800384 0.91628,4.860517 6.58,5.62693 7.3757,0.998088 9.19897,1.702044 4.40941,1.702106 -1.50347,7e-6 -2.84677,0.15176 -2.98507,0.337667 -0.0178,0.02395 0.0206,0.08013 0.10561,0.162338 -0.72638,0.01468 -1.16412,0.02473 -2.05331,0.04242 -11.14587,0.221884 -12.45091,0.291413 -12.52208,0.665413 -0.0381,0.200001 0.59582,1.282925 1.40836,2.406462 2.87417,3.974217 2.96431,3.998418 8.41197,2.297225 7.09431,-2.215418 9.04883,-2.350495 4.727,-0.326973 -1.35664,0.635184 -2.50205,1.339928 -2.5451,1.566116 -0.043,0.226149 3.66818,0.753501 8.24712,1.171523 l 8.32506,0.75976 6.27371,0.02712 6.27331,0.02635 2.53536,1.959171 c 1.3943,1.077507 2.61079,1.921771 2.70371,1.875896 0.0929,-0.0459 0.25799,-0.947553 0.3667,-2.003478 0.10873,-1.055926 0.48628,-3.466569 0.83902,-5.357254 0.52328,-2.804826 0.46385,-3.635413 -0.32384,-4.51156 -0.39495,-0.439302 -1.58265,-1.3406 -2.76801,-2.15894 -0.0991,-0.343277 -0.20002,-0.690456 -0.28954,-1.01416 -0.76114,-2.751996 -1.18019,-3.47581 -2.27621,-3.933618 -0.12444,-0.052 -0.30186,-0.108674 -0.50933,-0.167308 l 0.097,-0.145911 0.68314,-8.494065 c 1.14291,-14.21009 1.36086,-17.3619 1.1157,-17.93049 -0.0348,-0.0813 -0.0794,-0.10999 -0.13211,-0.11039 -0.56281,-0.005 -7.43138,7.60659 -7.59088,8.41233 -0.31366,1.5846 -1.02791,10.797135 -0.86239,11.123227 0.10209,0.201183 -0.046,0.480263 -0.32891,0.619954 -0.28294,0.139683 -0.60527,-0.209011 -0.71626,-0.774659 -1.16519,-5.937412 -1.40905,-7.040242 -1.55956,-7.048272 -0.0698,-0.004 -0.77037,1.06487 -1.67802,2.50999 l -0.0846,-0.21582 c -5.21707,-13.3053 -6.40611,-16.24137 -6.87734,-16.65086 h -2.7e-4 c -0.0504,-0.044 -0.0924,-0.0588 -0.13054,-0.0542 z" />
      </g>
    </g>
  </g>
</svg>
