<?xml version="1.0" encoding="UTF-8" standalone="no"?>
<!-- Created with Inkscape (http://www.inkscape.org/) -->

<svg
   width="240"
   height="64"
   viewBox="0 0 63.5 16.933333"
   version="1.1"
   id="svg5"
   inkscape:version="1.1.2 (0a00cf5339, 2022-02-04)"
   sodipodi:docname="corvo-logo-full.svg"
   xmlns:inkscape="http://www.inkscape.org/namespaces/inkscape"
   xmlns:sodipodi="http://sodipodi.sourceforge.net/DTD/sodipodi-0.dtd"
   xmlns="http://www.w3.org/2000/svg"
   xmlns:svg="http://www.w3.org/2000/svg">
  <sodipodi:namedview
     id="namedview7"
     pagecolor="#ffffff"
     bordercolor="#666666"
     borderopacity="1.0"
     inkscape:pageshadow="2"
     inkscape:pageopacity="0"
     inkscape:pagecheckerboard="true"
     inkscape:document-units="mm"
     showgrid="false"
     inkscape:zoom="1.9220354"
     inkscape:cx="93.390582"
     inkscape:cy="96.772413"
     inkscape:window-width="2048"
     inkscape:window-height="1139"
     inkscape:window-x="0"
     inkscape:window-y="32"
     inkscape:window-maximized="1"
     inkscape:current-layer="g6952"
     width="200mm"
     units="px"
     fit-margin-top="0"
     fit-margin-left="0"
     fit-margin-right="0"
     fit-margin-bottom="0"
     lock-margins="true"
     viewbox-height="115"
     showguides="false"
     inkscape:lockguides="true" />
  <defs
     id="defs2">
    <rect
       x="267.44034"
       y="-112.15972"
       width="747.82544"
       height="337.45996"
       id="rect10501" />
    <rect
       x="256.26163"
       y="65.66935"
       width="382.83548"
       height="138.367"
       id="rect17111" />
  </defs>
  <g
     inkscape:label="Layer 1"
     inkscape:groupmode="layer"
     id="layer1"
     transform="translate(-1.9570312e-5,-2.3681641e-5)">
    <g
       aria-label="corvo"
       transform="matrix(1.3823315,0,0,1.3823315,-289.76245,-94.94836)"
       id="text17109"
       style="font-weight:600;font-size:40px;line-height:1.25;font-family:Inter;-inkscape-font-specification:'Inter, Semi-Bold';white-space:pre;shape-inside:url(#rect17111);fill:#6868eb" />
    <g
       id="g6952"
       transform="matrix(0.34240906,0,0,0.34240906,89.016243,23.801103)">
      <g
         id="g8738">
        <g
           aria-label="corvo"
           transform="matrix(0.60010889,0,0,0.60010889,-362.63952,-7.2100511)"
           id="text10499"
           style="font-weight:600;font-size:75.7433px;line-height:1.25;font-family:Inter;-inkscape-font-specification:'Inter, Semi-Bold';white-space:pre;shape-inside:url(#rect10501);fill:#6868eb">
          <path
             d="m 290.4637,-41.255118 c 10.38242,0 16.9992,-6.159523 17.69854,-14.928101 h -9.30653 c -0.83382,4.438084 -4.03462,6.993345 -8.31132,6.993345 -6.07883,0 -10.00586,-5.083624 -10.00586,-13.529432 0,-8.338219 4.00772,-13.34115 10.00586,-13.34115 4.68016,0 7.55819,3.012518 8.31132,6.993345 h 9.30653 c -0.67244,-8.956861 -7.66578,-14.847409 -17.75234,-14.847409 -12.10387,0 -19.74275,8.741681 -19.74275,21.356599 0,12.507327 7.4506,21.302803 19.79655,21.302803 z"
             id="path36850" />
          <path
             d="m 334.19891,-41.255118 c 12.10386,0 19.79654,-8.526501 19.79654,-21.302803 0,-12.8032 -7.69268,-21.356599 -19.79654,-21.356599 -12.10387,0 -19.79655,8.553399 -19.79655,21.356599 0,12.776302 7.69268,21.302803 19.79655,21.302803 z m 0.0538,-7.800269 c -6.69747,0 -9.97896,-5.97124 -9.97896,-13.529432 0,-7.558191 3.28149,-13.610124 9.97896,-13.610124 6.58988,0 9.87138,6.051933 9.87138,13.610124 0,7.558192 -3.2815,13.529432 -9.87138,13.529432 z"
             id="path36852" />
          <path
             d="m 362.22605,-42.062042 h 9.73688 v -24.288424 c 0,-5.245008 3.95393,-8.956861 9.30653,-8.956861 1.64075,0 3.68496,0.295873 4.51878,0.564848 v -8.956861 c -0.88762,-0.161385 -2.42078,-0.268975 -3.49668,-0.268975 -4.73395,0 -8.68788,2.689748 -10.19414,7.477499 h -0.43036 v -6.885754 h -9.44101 z"
             id="path36854" />
          <path
             d="M 430.46483,-83.37657 H 420.1093 l -9.52171,30.690023 h -0.43036 l -9.49481,-30.690023 h -10.38243 l 14.71293,41.314528 h 10.75899 z"
             id="path36856" />
          <path
             d="m 453.78476,-41.255118 c 12.10386,0 19.79654,-8.526501 19.79654,-21.302803 0,-12.8032 -7.69268,-21.356599 -19.79654,-21.356599 -12.10387,0 -19.79655,8.553399 -19.79655,21.356599 0,12.776302 7.69268,21.302803 19.79655,21.302803 z m 0.0538,-7.800269 c -6.69747,0 -9.97896,-5.97124 -9.97896,-13.529432 0,-7.558191 3.28149,-13.610124 9.97896,-13.610124 6.58988,0 9.87138,6.051933 9.87138,13.610124 0,7.558192 -3.2815,13.529432 -9.87138,13.529432 z"
             id="path36858" />
        </g>
        <path
           id="path1148"
           style="fill:#6366f1;fill-opacity:1;stroke:none;stroke-width:0.121684px;stroke-linecap:butt;stroke-linejoin:miter;stroke-opacity:1"
           d="m -257.30284,-33.523886 13.62217,-10.306499 -13.66326,-6.499906 26.69707,-8.766991 21.21103,17.018272 -18.14411,11.608495 z" />
      </g>
    </g>
  </g>
</svg>
