<?xml version="1.0" encoding="UTF-8" standalone="no"?>
<!-- Created with Inkscape (http://www.inkscape.org/) -->

<svg
   width="240"
   height="64"
   viewBox="0 0 63.5 16.933333"
   version="1.1"
   id="svg5"
   inkscape:version="1.1.2 (0a00cf5339, 2022-02-04)"
   sodipodi:docname="logo-full.svg"
   xmlns:inkscape="http://www.inkscape.org/namespaces/inkscape"
   xmlns:sodipodi="http://sodipodi.sourceforge.net/DTD/sodipodi-0.dtd"
   xmlns="http://www.w3.org/2000/svg"
   xmlns:svg="http://www.w3.org/2000/svg">
  <sodipodi:namedview
     id="namedview7"
     pagecolor="#ffffff"
     bordercolor="#666666"
     borderopacity="1.0"
     inkscape:pageshadow="2"
     inkscape:pageopacity="1"
     inkscape:pagecheckerboard="true"
     inkscape:document-units="mm"
     showgrid="false"
     inkscape:zoom="2.56"
     inkscape:cx="56.835938"
     inkscape:cy="7.2265625"
     inkscape:window-width="2176"
     inkscape:window-height="940"
     inkscape:window-x="5312"
     inkscape:window-y="195"
     inkscape:window-maximized="0"
     inkscape:current-layer="g6952"
     width="200mm"
     units="px"
     fit-margin-top="0"
     fit-margin-left="0"
     fit-margin-right="0"
     fit-margin-bottom="0"
     lock-margins="true"
     viewbox-height="115"
     showguides="false" />
  <defs
     id="defs2">
    <rect
       x="267.44034"
       y="-112.15972"
       width="747.82544"
       height="337.45996"
       id="rect10501" />
    <rect
       x="256.26163"
       y="65.66935"
       width="382.83548"
       height="138.367"
       id="rect17111" />
  </defs>
  <g
     inkscape:label="Layer 1"
     inkscape:groupmode="layer"
     id="layer1"
     transform="translate(-1.9570312e-5,-2.3681641e-5)">
    <g
       aria-label="corvo"
       transform="matrix(1.3823315,0,0,1.3823315,-289.76245,-94.94836)"
       id="text17109"
       style="font-weight:600;font-size:40px;line-height:1.25;font-family:Inter;-inkscape-font-specification:'Inter, Semi-Bold';white-space:pre;shape-inside:url(#rect17111);fill:#6868eb" />
    <g
       id="g6952"
       transform="matrix(0.34240906,0,0,0.34240906,89.016243,23.801103)">
      <g
         id="g28794">
        <path
           id="path4985"
           style="fill:#6868eb;fill-opacity:1;stroke:none;stroke-width:1.49653;stroke-opacity:0"
           d="m -258.39881,-65.670207 c -0.006,3.04e-4 -0.0117,0.0012 -0.0145,0.0023 -0.0964,0.03208 0.41495,0.812904 1.13628,1.735486 0.72133,0.922582 2.09697,2.704004 3.05699,3.958699 2.32915,3.04411 2.79985,3.432438 4.91848,4.055667 0.95311,0.280366 3.91594,1.214874 6.5837,2.076893 2.66777,0.862007 5.29607,1.672276 5.84051,1.800516 1.01641,0.239437 1.62828,0.575403 1.04803,0.575403 -0.17494,0 -2.9737,-0.359254 -6.21907,-0.798362 -3.24538,-0.439115 -6.03569,-0.772204 -6.20108,-0.740291 -0.28915,0.05567 7.27742,6.304404 10.18416,8.410345 1.20093,0.87009 1.58039,1.034212 2.84332,1.229187 1.44675,0.223343 8.34256,1.00622 8.86266,1.00622 0.14926,0 0.27173,0.08912 0.27173,0.197994 0,0.108873 -0.0847,0.197994 -0.18813,0.197994 -0.10336,0 -3.02112,1.210162 -6.48383,2.689453 -3.46272,1.479292 -8.30028,3.49458 -10.75027,4.478359 -4.76483,1.913309 -8.71112,3.689753 -8.71112,3.920963 0,0.0779 0.64588,0.201266 1.43532,0.274633 0.78944,0.07331 3.35076,0.435093 5.69186,0.804166 4.26235,0.67198 5.17828,0.701905 6.14823,0.200316 0.28574,-0.14776 2.39398,-1.676597 4.68506,-3.397818 3.77096,-2.832997 6.39095,-4.587509 6.39095,-4.279785 0,0.06394 -0.64587,0.794639 -1.43531,1.624008 -0.78945,0.829359 -1.73244,1.886456 -2.09547,2.348628 -0.55549,0.707158 -0.60226,0.840164 -0.29671,0.840164 0.42069,3.13e-4 21.69054,-7.041051 22.44987,-7.431999 0.88069,-0.453455 2.47465,-2.011421 4.61074,-4.50681 2.17645,-2.542554 3.22513,-3.507139 4.31694,-3.972055 0.70587,-0.300557 6.8244,-1.804894 8.23733,-2.025217 0.67216,-0.104813 0.7997,-0.185414 0.62592,-0.394831 -0.29383,-0.354038 -3.83801,-1.725771 -6.14012,-2.376496 -1.02463,-0.289623 -2.79854,-0.956503 -3.94186,-1.48175 -3.22471,-1.481427 -5.00738,-1.635192 -8.61241,-0.742623 -2.01154,0.498047 -6.4754,1.932784 -6.71493,2.158185 -0.17158,0.161445 0.20769,0.668083 3.51336,4.69145 0.6502,0.791356 1.13058,1.489667 1.06777,1.552589 -0.22856,0.228556 -2.86645,-1.683415 -4.96782,-3.601037 -4.28147,-3.907176 -4.09035,-3.774753 -6.5239,-4.527165 -12.12415,-3.748595 -17.06568,-5.283145 -21.71363,-6.743382 -6.97358,-2.190852 -12.52724,-3.82938 -12.90903,-3.810059 z m 54.07998,12.661105 c 0.0431,-3.15e-4 0.0898,2.12e-4 0.13935,0.0012 0.26389,0.005 0.61209,0.02843 0.98067,0.06793 l 1.34009,0.143413 -0.54346,0.467404 c -0.76381,0.656976 -1.83623,0.643073 -2.14193,-0.02786 -0.12428,-0.272679 -0.17392,-0.547803 -0.11037,-0.611398 0.0258,-0.02585 0.14877,-0.0393 0.3356,-0.04064 z m 4.23101,1.013188 c 0.16297,-0.01519 0.22123,0.0064 0.22123,0.0064 l 0.30192,0.04644 c 0.30205,0.04597 0.35028,0.316662 0.28218,0.395988 -0.0681,0.07932 -0.59339,0.09406 -0.59339,0.09406 l -1.9004,-0.03309 0.83843,-0.294959 c 0.41921,-0.147534 0.68707,-0.199633 0.85003,-0.21483 z m -4.63802,15.002188 c -0.43748,0.0054 -1.32961,0.259431 -3.5453,0.992287 l -3.2335,1.06951 0.26999,0.685718 c 0.14864,0.377109 0.36677,0.915506 0.48424,1.196668 0.19941,0.477241 0.19036,0.602949 -0.13529,1.887611 -0.19183,0.75681 -0.34895,1.433728 -0.34895,1.5044 0,0.227212 1.49716,-0.09451 3.19459,-0.686297 0.89925,-0.313511 2.28784,-0.781048 3.08544,-1.038739 0.79761,-0.257706 1.57563,-0.58224 1.72911,-0.721138 1.3914,-1.259189 0.49327,-4.534327 -1.33776,-4.877827 -0.0464,-0.0087 -0.1001,-0.01296 -0.16257,-0.01219 z m -11.40174,0.760038 c -0.32863,0.0033 -0.53509,0.141205 -0.57365,0.412244 -0.0397,0.278983 0.0929,0.446784 0.74203,0.941191 0.88637,0.675025 1.51346,1.364551 1.83768,2.020576 0.24308,0.491698 0.2624,0.579004 0.28509,1.268083 0.0142,0.436589 -0.0215,1.06333 -0.0872,1.529366 -0.0611,0.434421 -0.11095,0.867733 -0.11095,0.962677 0,0.201861 0.069,0.212881 0.38786,0.06155 0.84014,-0.398663 1.64242,-2.052167 1.64143,-3.382718 -3.9e-4,-0.710484 -0.0854,-0.976178 -0.47554,-1.491047 -0.41615,-0.549202 -1.77921,-1.655307 -2.42875,-1.970637 -0.47295,-0.229596 -0.87975,-0.346341 -1.18622,-0.351279 -0.0105,-1.75e-4 -0.0214,-1.07e-4 -0.032,0 z m -3.32175,1.301179 c -0.31317,0.0036 -0.5133,0.09794 -0.64392,0.297281 -0.20842,0.318107 -0.094,0.483007 0.70662,1.020157 1.28111,0.859538 1.95686,1.596682 2.28303,2.48914 0.13194,0.360904 0.15546,0.600444 0.1823,1.860321 l 0.0308,1.446336 0.19857,-0.0691 c 0.28092,-0.09793 0.81704,-0.696303 1.019,-1.137442 0.47608,-1.039907 0.59129,-2.53645 0.25316,-3.286339 -0.21345,-0.473317 -0.88923,-1.110134 -1.88123,-1.773227 -0.89005,-0.594946 -1.29609,-0.771905 -1.91316,-0.834937 -0.0849,-0.0086 -0.16289,-0.01301 -0.23516,-0.01219 z m -1.42311,2.550104 c -0.0292,2.3e-5 -0.0597,3e-4 -0.0917,5.76e-4 -0.32723,0.0027 -0.81512,0.05744 -1.0846,0.121929 -0.45276,0.108406 -2.76735,0.809083 -2.82532,0.855262 -0.014,0.0112 0.25749,0.339319 0.60384,0.728685 1.21584,1.366728 1.46669,2.342545 1.17171,4.563711 -0.0577,0.434432 -0.11527,0.875733 -0.12774,0.980675 -0.0205,0.172918 -0.006,0.186692 0.15735,0.147478 0.45291,-0.108593 1.59585,-0.560399 4.09166,-1.617618 0.40771,-0.172705 0.58859,-0.341434 0.79197,-0.739717 0.24553,-0.480791 0.29417,-1.224874 0.12891,-1.967738 -0.25844,-1.161587 -1.14323,-2.468835 -1.95845,-2.893256 -0.28592,-0.148807 -0.41998,-0.180348 -0.85758,-0.179994 z m -5.7331,1.934061 c -0.0152,-2.3e-5 -0.0301,3.06e-4 -0.0453,5.77e-4 -0.1386,0.0024 -0.27769,0.0178 -0.41573,0.04644 -0.96653,0.200649 -1.77975,0.821708 -2.17095,1.657682 -0.17807,0.380389 -0.22227,0.5766 -0.25025,1.110737 -0.0888,1.697051 0.77897,3.062153 2.27836,3.585357 0.61615,0.214987 1.67989,0.198327 2.20115,-0.03484 0.4548,-0.203427 0.9281,-0.659865 1.13106,-1.089836 0.18402,-0.389777 0.31068,-1.0248 0.20438,-1.0248 -0.0356,0 -0.40664,0.218807 -0.82448,0.485981 -0.80931,0.517508 -1.27088,0.680363 -1.69718,0.600366 -1.10361,-0.207041 -2.04878,-1.554186 -1.86787,-2.661583 0.18222,-1.115207 1.31282,-1.720073 2.09723,-1.121769 0.28583,0.218031 0.38039,0.519466 0.38089,1.212927 3.5e-4,0.448554 0.0216,0.531326 0.17245,0.682233 0.19806,0.198042 0.55434,0.229417 0.78325,0.06909 0.41153,-0.288243 0.52103,-1.25107 0.23051,-2.027542 -0.33417,-0.893154 -1.25347,-1.489399 -2.20753,-1.491046 z" />
        <text
           xml:space="preserve"
           transform="matrix(0.51688645,0,0,0.51688645,-320.8525,-12.420751)"
           id="text10499"
           style="font-style:normal;font-variant:normal;font-weight:600;font-stretch:normal;font-size:75.7433px;line-height:1.25;font-family:Inter;-inkscape-font-specification:'Inter, Semi-Bold';font-variant-ligatures:normal;font-variant-caps:normal;font-variant-numeric:normal;font-variant-east-asian:normal;white-space:pre;shape-inside:url(#rect10501);fill:#6868eb;fill-opacity:1;stroke:none"><tspan
             x="267.43945"
             y="-42.062042"
             id="tspan28808">corvo</tspan></text>
      </g>
    </g>
  </g>
</svg>
